<svg xmlns="http://www.w3.org/2000/svg" width="375" viewBox="0 0 375 375" height="375" version="1.0"><defs><clipPath id="a"><path d="M 60.570312 55.453125 L 314.070312 55.453125 L 314.070312 319.453125 L 60.570312 319.453125 Z M 60.570312 55.453125"/></clipPath></defs><g clip-path="url(#a)"><path fill="#F4AF00" d="M 197.796875 319.222656 C 125.96875 319.222656 77.121094 255.074219 91.191406 186.960938 L 60.601562 186.960938 C 77.671875 169.289062 170.203125 73.476562 187.363281 55.683594 C 196.199219 64.828125 203.945312 72.839844 223.332031 92.917969 L 223.332031 73.917969 L 278.082031 73.917969 L 278.082031 149.628906 L 314.132812 186.960938 L 151.726562 186.960938 C 138.644531 221.742188 158.441406 265.867188 199.214844 265.867188 C 214.859375 265.867188 227.738281 262.320312 247.292969 244.183594 L 256.015625 253.605469 C 187.476562 317.175781 109.125 249.007812 143.332031 174.117188 L 283.878906 174.117188 L 265.25 154.824219 L 265.25 86.765625 L 236.164062 86.765625 L 236.164062 124.703125 C 213.328125 101.035156 198.003906 85.167969 187.371094 74.167969 C 170.414062 91.730469 115.515625 148.578125 90.855469 174.117188 L 107.824219 174.117188 L 105.535156 182.273438 C 88.417969 243.273438 129.597656 306.375 197.796875 306.375 C 230.761719 306.375 252.378906 296.953125 274.894531 272.761719 L 284.28125 281.515625 C 259.355469 308.296875 234.300781 319.222656 197.796875 319.222656"/></g></svg>