<svg xmlns="http://www.w3.org/2000/svg" width="375" viewBox="0 0 375 375" height="375" version="1.0"><defs><clipPath id="a"><path d="M 1.097656 95 L 178.847656 95 L 178.847656 280 L 1.097656 280 Z M 1.097656 95"/></clipPath></defs><path fill="#FFF" d="M-37.5 -37.5H412.5V412.5H-37.5z"/><path fill="#FFF" d="M-37.5 -37.5H412.5V412.5H-37.5z"/><path fill="#2A2E30" d="M-37.5 -37.5H412.5V412.5H-37.5z"/><g clip-path="url(#a)"><path fill="#FFBC39" d="M 97.316406 279.980469 C 46.953125 279.980469 12.703125 234.972656 22.570312 187.175781 L 1.121094 187.175781 C 13.089844 174.777344 77.96875 107.550781 90.003906 95.0625 C 96.199219 101.480469 101.628906 107.101562 115.222656 121.191406 L 115.222656 107.859375 L 153.613281 107.859375 L 153.613281 160.980469 L 178.890625 187.175781 L 65.015625 187.175781 C 55.84375 211.582031 69.722656 242.542969 98.3125 242.542969 C 109.28125 242.542969 118.3125 240.054688 132.023438 227.328125 L 138.140625 233.941406 C 90.082031 278.546875 35.144531 230.714844 59.128906 178.164062 L 157.679688 178.164062 L 144.613281 164.628906 L 144.613281 116.871094 L 124.21875 116.871094 L 124.21875 143.492188 C 108.207031 126.886719 97.464844 115.753906 90.007812 108.035156 C 78.121094 120.355469 39.625 160.246094 22.335938 178.164062 L 34.230469 178.164062 L 32.625 183.890625 C 20.625 226.691406 49.5 270.96875 97.316406 270.96875 C 120.433594 270.96875 135.589844 264.355469 151.378906 247.378906 L 157.960938 253.523438 C 140.484375 272.316406 122.914062 279.980469 97.316406 279.980469"/></g><g fill="#FFF"><g><g><path d="M 10.078125 0.25 C 8.117188 0.269531 6.4375 -0.0703125 5.03125 -0.78125 C 3.625 -1.5 2.546875 -2.523438 1.796875 -3.859375 C 1.054688 -5.203125 0.6875 -6.816406 0.6875 -8.703125 C 0.6875 -10.628906 1.09375 -12.3125 1.90625 -13.75 C 2.71875 -15.195312 3.851562 -16.316406 5.3125 -17.109375 C 6.769531 -17.910156 8.472656 -18.3125 10.421875 -18.3125 C 12.203125 -18.3125 13.757812 -17.9375 15.09375 -17.1875 C 16.425781 -16.445312 17.460938 -15.410156 18.203125 -14.078125 C 18.941406 -12.742188 19.3125 -11.179688 19.3125 -9.390625 C 19.3125 -7.484375 18.925781 -5.8125 18.15625 -4.375 C 17.382812 -2.9375 16.300781 -1.804688 14.90625 -0.984375 C 13.519531 -0.171875 11.910156 0.238281 10.078125 0.25 Z M 9.953125 -4.203125 C 11.253906 -4.203125 12.285156 -4.660156 13.046875 -5.578125 C 13.804688 -6.503906 14.1875 -7.738281 14.1875 -9.28125 C 14.1875 -10.675781 13.828125 -11.785156 13.109375 -12.609375 C 12.390625 -13.441406 11.425781 -13.859375 10.21875 -13.859375 C 9.34375 -13.859375 8.570312 -13.640625 7.90625 -13.203125 C 7.25 -12.773438 6.738281 -12.179688 6.375 -11.421875 C 6.007812 -10.671875 5.828125 -9.804688 5.828125 -8.828125 C 5.828125 -7.367188 6.191406 -6.234375 6.921875 -5.421875 C 7.648438 -4.609375 8.660156 -4.203125 9.953125 -4.203125 Z M 9.953125 -4.203125" transform="translate(138.248 211.956)"/></g></g></g><g fill="#FFF"><g><g><path d="M 13.046875 -18.0625 L 17.9375 -18.0625 L 17.9375 0 L 13.40625 0 L 6.40625 -9.71875 L 6.40625 0 L 1.53125 0 L 1.53125 -18.0625 L 6.046875 -18.0625 L 13.046875 -8.375 Z M 13.046875 -18.0625" transform="translate(162.714 211.956)"/></g></g></g><g fill="#FFF"><g><g><path d="M 1.53125 0 L 1.53125 -18.0625 L 7.890625 -18.0625 C 11.492188 -18.0625 14.21875 -17.300781 16.0625 -15.78125 C 17.90625 -14.257812 18.828125 -12.019531 18.828125 -9.0625 C 18.828125 -7.75 18.585938 -6.539062 18.109375 -5.4375 C 17.640625 -4.34375 16.96875 -3.382812 16.09375 -2.5625 C 15.226562 -1.75 14.207031 -1.117188 13.03125 -0.671875 C 11.851562 -0.222656 10.570312 0 9.1875 0 Z M 6.609375 -4.484375 L 8.828125 -4.484375 C 10.441406 -4.484375 11.65625 -4.863281 12.46875 -5.625 C 13.289062 -6.382812 13.703125 -7.484375 13.703125 -8.921875 C 13.703125 -10.535156 13.269531 -11.710938 12.40625 -12.453125 C 11.539062 -13.203125 10.195312 -13.578125 8.375 -13.578125 L 6.609375 -13.578125 Z M 6.609375 -4.484375" transform="translate(186.646 211.956)"/></g></g></g><g fill="#FFF"><g><g><path d="M 10.078125 0.25 C 8.117188 0.269531 6.4375 -0.0703125 5.03125 -0.78125 C 3.625 -1.5 2.546875 -2.523438 1.796875 -3.859375 C 1.054688 -5.203125 0.6875 -6.816406 0.6875 -8.703125 C 0.6875 -10.628906 1.09375 -12.3125 1.90625 -13.75 C 2.71875 -15.195312 3.851562 -16.316406 5.3125 -17.109375 C 6.769531 -17.910156 8.472656 -18.3125 10.421875 -18.3125 C 12.203125 -18.3125 13.757812 -17.9375 15.09375 -17.1875 C 16.425781 -16.445312 17.460938 -15.410156 18.203125 -14.078125 C 18.941406 -12.742188 19.3125 -11.179688 19.3125 -9.390625 C 19.3125 -7.484375 18.925781 -5.8125 18.15625 -4.375 C 17.382812 -2.9375 16.300781 -1.804688 14.90625 -0.984375 C 13.519531 -0.171875 11.910156 0.238281 10.078125 0.25 Z M 9.953125 -4.203125 C 11.253906 -4.203125 12.285156 -4.660156 13.046875 -5.578125 C 13.804688 -6.503906 14.1875 -7.738281 14.1875 -9.28125 C 14.1875 -10.675781 13.828125 -11.785156 13.109375 -12.609375 C 12.390625 -13.441406 11.425781 -13.859375 10.21875 -13.859375 C 9.34375 -13.859375 8.570312 -13.640625 7.90625 -13.203125 C 7.25 -12.773438 6.738281 -12.179688 6.375 -11.421875 C 6.007812 -10.671875 5.828125 -9.804688 5.828125 -8.828125 C 5.828125 -7.367188 6.191406 -6.234375 6.921875 -5.421875 C 7.648438 -4.609375 8.660156 -4.203125 9.953125 -4.203125 Z M 9.953125 -4.203125" transform="translate(210.629 211.956)"/></g></g></g><g fill="#FFF"><g><g><path d="M 1.578125 0 L 2.109375 -18.0625 L 6.25 -18.0625 L 12.3125 -6.28125 L 18.265625 -18.0625 L 22.40625 -18.0625 L 22.796875 0 L 17.875 0 L 17.734375 -7.5625 L 13.859375 0 L 10.296875 0 L 6.46875 -7.421875 L 6.234375 0 Z M 1.578125 0" transform="translate(235.094 211.956)"/></g></g></g><g fill="#FFF"><g><g><path d="M 1.53125 0 L 1.53125 -18.0625 L 6.609375 -18.0625 L 6.609375 0 Z M 2.53125 -19.5625 L 5.75 -24.0625 L 10.5 -22.921875 L 6.640625 -19.5625 Z M 2.53125 -19.5625" transform="translate(263.96 211.956)"/></g></g></g><g fill="#FFF"><g><g><path d="M 13.046875 -18.0625 L 17.9375 -18.0625 L 17.9375 0 L 13.40625 0 L 6.40625 -9.71875 L 6.40625 0 L 1.53125 0 L 1.53125 -18.0625 L 6.046875 -18.0625 L 13.046875 -8.375 Z M 13.046875 -18.0625" transform="translate(276.575 211.956)"/></g></g></g><g fill="#FFF"><g><g><path d="M 1.53125 0 L 1.53125 -18.0625 L 6.609375 -18.0625 L 6.609375 0 Z M 1.53125 0" transform="translate(300.507 211.956)"/></g></g></g><g fill="#FFF"><g><g><path d="M 10.078125 0.25 C 8.117188 0.269531 6.4375 -0.0703125 5.03125 -0.78125 C 3.625 -1.5 2.546875 -2.523438 1.796875 -3.859375 C 1.054688 -5.203125 0.6875 -6.816406 0.6875 -8.703125 C 0.6875 -10.628906 1.09375 -12.3125 1.90625 -13.75 C 2.71875 -15.195312 3.851562 -16.316406 5.3125 -17.109375 C 6.769531 -17.910156 8.472656 -18.3125 10.421875 -18.3125 C 12.203125 -18.3125 13.757812 -17.9375 15.09375 -17.1875 C 16.425781 -16.445312 17.460938 -15.410156 18.203125 -14.078125 C 18.941406 -12.742188 19.3125 -11.179688 19.3125 -9.390625 C 19.3125 -7.484375 18.925781 -5.8125 18.15625 -4.375 C 17.382812 -2.9375 16.300781 -1.804688 14.90625 -0.984375 C 13.519531 -0.171875 11.910156 0.238281 10.078125 0.25 Z M 9.953125 -4.203125 C 11.253906 -4.203125 12.285156 -4.660156 13.046875 -5.578125 C 13.804688 -6.503906 14.1875 -7.738281 14.1875 -9.28125 C 14.1875 -10.675781 13.828125 -11.785156 13.109375 -12.609375 C 12.390625 -13.441406 11.425781 -13.859375 10.21875 -13.859375 C 9.34375 -13.859375 8.570312 -13.640625 7.90625 -13.203125 C 7.25 -12.773438 6.738281 -12.179688 6.375 -11.421875 C 6.007812 -10.671875 5.828125 -9.804688 5.828125 -8.828125 C 5.828125 -7.367188 6.191406 -6.234375 6.921875 -5.421875 C 7.648438 -4.609375 8.660156 -4.203125 9.953125 -4.203125 Z M 9.953125 -4.203125" transform="translate(313.123 211.956)"/></g></g></g><g fill="#FFF"><g><g><path d="M 7.609375 0.25 C 5.335938 0.25 3.5625 -0.226562 2.28125 -1.1875 C 1.007812 -2.15625 0.289062 -3.566406 0.125 -5.421875 L 4.828125 -6.109375 C 4.867188 -5.460938 5.15625 -4.9375 5.6875 -4.53125 C 6.21875 -4.132812 6.910156 -3.9375 7.765625 -3.9375 C 9.316406 -3.9375 10.09375 -4.34375 10.09375 -5.15625 C 10.09375 -5.53125 9.875 -5.832031 9.4375 -6.0625 C 9.007812 -6.289062 8.304688 -6.523438 7.328125 -6.765625 C 5.222656 -7.273438 3.675781 -7.953125 2.6875 -8.796875 C 1.707031 -9.648438 1.226562 -10.847656 1.25 -12.390625 C 1.257812 -13.554688 1.566406 -14.582031 2.171875 -15.46875 C 2.773438 -16.363281 3.625 -17.0625 4.71875 -17.5625 C 5.8125 -18.0625 7.097656 -18.3125 8.578125 -18.3125 C 10.390625 -18.3125 11.882812 -17.851562 13.0625 -16.9375 C 14.238281 -16.019531 14.910156 -14.773438 15.078125 -13.203125 L 10.640625 -12.4375 C 10.546875 -12.925781 10.28125 -13.328125 9.84375 -13.640625 C 9.414062 -13.960938 8.898438 -14.125 8.296875 -14.125 C 7.710938 -14.125 7.25 -14.007812 6.90625 -13.78125 C 6.5625 -13.550781 6.390625 -13.238281 6.390625 -12.84375 C 6.390625 -12.488281 6.5625 -12.175781 6.90625 -11.90625 C 7.25 -11.644531 7.90625 -11.398438 8.875 -11.171875 C 10.269531 -10.828125 11.4375 -10.4375 12.375 -10 C 13.3125 -9.570312 14.019531 -9.019531 14.5 -8.34375 C 14.988281 -7.664062 15.234375 -6.773438 15.234375 -5.671875 C 15.234375 -4.503906 14.914062 -3.472656 14.28125 -2.578125 C 13.644531 -1.691406 12.753906 -1 11.609375 -0.5 C 10.460938 0 9.128906 0.25 7.609375 0.25 Z M 7.609375 0.25" transform="translate(337.588 211.956)"/></g></g></g></svg>