<svg xmlns="http://www.w3.org/2000/svg" width="375" viewBox="0 0 375 375" height="375" version="1.0"><defs><clipPath id="a"><path d="M 6.828125 93.523438 L 199.578125 93.523438 L 199.578125 293.773438 L 6.828125 293.773438 Z M 6.828125 93.523438"/></clipPath></defs><path fill="#FFF" d="M-37.5 -37.5H412.5V412.5H-37.5z"/><path fill="#FFF" d="M-37.5 -37.5H412.5V412.5H-37.5z"/><path fill="#D8D8D8" d="M-37.5 -37.5H412.5V412.5H-37.5z"/><g clip-path="url(#a)"><path fill="#EBB103" d="M 111.167969 293.597656 C 56.554688 293.597656 19.414062 244.941406 30.113281 193.273438 L 6.851562 193.273438 C 19.828125 179.867188 90.1875 107.191406 103.234375 93.695312 C 109.953125 100.628906 115.84375 106.710938 130.582031 121.941406 L 130.582031 107.527344 L 172.210938 107.527344 L 172.210938 164.953125 L 199.625 193.273438 L 76.140625 193.273438 C 66.191406 219.65625 81.242188 253.125 112.246094 253.125 C 124.140625 253.125 133.933594 250.433594 148.804688 236.679688 L 155.433594 243.828125 C 103.324219 292.046875 43.746094 240.335938 69.753906 183.53125 L 176.621094 183.53125 L 162.457031 168.898438 L 162.457031 117.269531 L 140.339844 117.269531 L 140.339844 146.046875 C 122.976562 128.097656 111.328125 116.0625 103.238281 107.714844 C 90.347656 121.039062 48.605469 164.160156 29.855469 183.53125 L 42.753906 183.53125 L 41.015625 189.71875 C 28 235.988281 59.3125 283.855469 111.167969 283.855469 C 136.234375 283.855469 152.671875 276.703125 169.789062 258.355469 L 176.925781 264.996094 C 157.976562 285.3125 138.925781 293.597656 111.167969 293.597656"/></g><g fill="#2A2E30"><g><g><path d="M 18.828125 -3.734375 C 18.015625 -2.441406 16.898438 -1.445312 15.484375 -0.75 C 14.078125 -0.0507812 12.507812 0.296875 10.78125 0.296875 C 8.664062 0.296875 6.851562 -0.0703125 5.34375 -0.8125 C 3.84375 -1.5625 2.695312 -2.628906 1.90625 -4.015625 C 1.113281 -5.410156 0.71875 -7.066406 0.71875 -8.984375 C 0.71875 -11.015625 1.148438 -12.78125 2.015625 -14.28125 C 2.890625 -15.78125 4.109375 -16.945312 5.671875 -17.78125 C 7.242188 -18.613281 9.070312 -19.03125 11.15625 -19.03125 C 12.988281 -19.03125 14.53125 -18.707031 15.78125 -18.0625 C 17.03125 -17.425781 18.050781 -16.4375 18.84375 -15.09375 L 14.859375 -12.265625 C 14.523438 -12.921875 14.003906 -13.4375 13.296875 -13.8125 C 12.585938 -14.1875 11.8125 -14.375 10.96875 -14.375 C 9.414062 -14.394531 8.210938 -13.914062 7.359375 -12.9375 C 6.503906 -11.957031 6.078125 -10.6875 6.078125 -9.125 C 6.078125 -7.625 6.46875 -6.453125 7.25 -5.609375 C 8.039062 -4.773438 9.226562 -4.359375 10.8125 -4.359375 C 12.644531 -4.359375 14.019531 -5.148438 14.9375 -6.734375 Z M 18.828125 -3.734375" transform="translate(115.88 227.631)"/></g></g></g><g fill="#2A2E30"><g><g><path d="M 10.46875 0.265625 C 8.4375 0.285156 6.691406 -0.0703125 5.234375 -0.8125 C 3.773438 -1.5625 2.65625 -2.628906 1.875 -4.015625 C 1.101562 -5.410156 0.71875 -7.085938 0.71875 -9.046875 C 0.71875 -11.054688 1.140625 -12.804688 1.984375 -14.296875 C 2.828125 -15.796875 4.003906 -16.957031 5.515625 -17.78125 C 7.035156 -18.613281 8.8125 -19.03125 10.84375 -19.03125 C 12.6875 -19.03125 14.300781 -18.640625 15.6875 -17.859375 C 17.070312 -17.085938 18.144531 -16.007812 18.90625 -14.625 C 19.675781 -13.25 20.0625 -11.625 20.0625 -9.75 C 20.0625 -7.78125 19.660156 -6.046875 18.859375 -4.546875 C 18.054688 -3.046875 16.929688 -1.875 15.484375 -1.03125 C 14.046875 -0.1875 12.375 0.242188 10.46875 0.265625 Z M 10.34375 -4.359375 C 11.695312 -4.359375 12.769531 -4.835938 13.5625 -5.796875 C 14.351562 -6.765625 14.75 -8.050781 14.75 -9.65625 C 14.75 -11.09375 14.375 -12.242188 13.625 -13.109375 C 12.875 -13.972656 11.875 -14.40625 10.625 -14.40625 C 9.707031 -14.40625 8.90625 -14.179688 8.21875 -13.734375 C 7.53125 -13.285156 6.992188 -12.664062 6.609375 -11.875 C 6.234375 -11.09375 6.046875 -10.191406 6.046875 -9.171875 C 6.046875 -7.660156 6.425781 -6.476562 7.1875 -5.625 C 7.945312 -4.78125 9 -4.359375 10.34375 -4.359375 Z M 10.34375 -4.359375" transform="translate(138.855 227.631)"/></g></g></g><g fill="#2A2E30"><g><g><path d="M 13.5625 -18.765625 L 18.640625 -18.765625 L 18.640625 0 L 13.9375 0 L 6.65625 -10.09375 L 6.65625 0 L 1.59375 0 L 1.59375 -18.765625 L 6.296875 -18.765625 L 13.5625 -8.703125 Z M 13.5625 -18.765625" transform="translate(164.289 227.631)"/></g></g></g><g fill="#2A2E30"><g><g><path d="M 1.59375 0 L 1.59375 -18.765625 L 8.203125 -18.765625 C 11.953125 -18.765625 14.78125 -17.972656 16.6875 -16.390625 C 18.601562 -14.816406 19.5625 -12.488281 19.5625 -9.40625 C 19.5625 -8.050781 19.3125 -6.800781 18.8125 -5.65625 C 18.320312 -4.507812 17.628906 -3.515625 16.734375 -2.671875 C 15.835938 -1.828125 14.773438 -1.171875 13.546875 -0.703125 C 12.328125 -0.234375 10.992188 0 9.546875 0 Z M 6.875 -4.65625 L 9.171875 -4.65625 C 10.847656 -4.65625 12.113281 -5.050781 12.96875 -5.84375 C 13.820312 -6.632812 14.25 -7.78125 14.25 -9.28125 C 14.25 -10.957031 13.796875 -12.179688 12.890625 -12.953125 C 11.992188 -13.734375 10.597656 -14.125 8.703125 -14.125 L 6.875 -14.125 Z M 6.875 -4.65625" transform="translate(189.168 227.631)"/></g></g></g><g fill="#2A2E30"><g><g><path d="M 10.46875 0.265625 C 8.4375 0.285156 6.691406 -0.0703125 5.234375 -0.8125 C 3.773438 -1.5625 2.65625 -2.628906 1.875 -4.015625 C 1.101562 -5.410156 0.71875 -7.085938 0.71875 -9.046875 C 0.71875 -11.054688 1.140625 -12.804688 1.984375 -14.296875 C 2.828125 -15.796875 4.003906 -16.957031 5.515625 -17.78125 C 7.035156 -18.613281 8.8125 -19.03125 10.84375 -19.03125 C 12.6875 -19.03125 14.300781 -18.640625 15.6875 -17.859375 C 17.070312 -17.085938 18.144531 -16.007812 18.90625 -14.625 C 19.675781 -13.25 20.0625 -11.625 20.0625 -9.75 C 20.0625 -7.78125 19.660156 -6.046875 18.859375 -4.546875 C 18.054688 -3.046875 16.929688 -1.875 15.484375 -1.03125 C 14.046875 -0.1875 12.375 0.242188 10.46875 0.265625 Z M 10.34375 -4.359375 C 11.695312 -4.359375 12.769531 -4.835938 13.5625 -5.796875 C 14.351562 -6.765625 14.75 -8.050781 14.75 -9.65625 C 14.75 -11.09375 14.375 -12.242188 13.625 -13.109375 C 12.875 -13.972656 11.875 -14.40625 10.625 -14.40625 C 9.707031 -14.40625 8.90625 -14.179688 8.21875 -13.734375 C 7.53125 -13.285156 6.992188 -12.664062 6.609375 -11.875 C 6.234375 -11.09375 6.046875 -10.191406 6.046875 -9.171875 C 6.046875 -7.660156 6.425781 -6.476562 7.1875 -5.625 C 7.945312 -4.78125 9 -4.359375 10.34375 -4.359375 Z M 10.34375 -4.359375" transform="translate(214.1 227.631)"/></g></g></g><g fill="#2A2E30"><g><g><path d="M 1.640625 0 L 2.1875 -18.765625 L 6.5 -18.765625 L 12.796875 -6.53125 L 18.984375 -18.765625 L 23.296875 -18.765625 L 23.6875 0 L 18.578125 0 L 18.421875 -7.859375 L 14.40625 0 L 10.703125 0 L 6.71875 -7.71875 L 6.484375 0 Z M 1.640625 0" transform="translate(239.533 227.631)"/></g></g></g><g fill="#2A2E30"><g><g><path d="M 1.59375 0 L 1.59375 -18.765625 L 6.875 -18.765625 L 6.875 0 Z M 1.796875 -20.328125 L 5.125 -25.015625 L 10.0625 -23.8125 L 6.046875 -20.328125 Z M 1.796875 -20.328125" transform="translate(269.54 227.631)"/></g></g></g><g fill="#2A2E30"><g><g><path d="M 13.5625 -18.765625 L 18.640625 -18.765625 L 18.640625 0 L 13.9375 0 L 6.65625 -10.09375 L 6.65625 0 L 1.59375 0 L 1.59375 -18.765625 L 6.296875 -18.765625 L 13.5625 -8.703125 Z M 13.5625 -18.765625" transform="translate(282.655 227.631)"/></g></g></g><g fill="#2A2E30"><g><g><path d="M 1.59375 0 L 1.59375 -18.765625 L 6.875 -18.765625 L 6.875 0 Z M 1.59375 0" transform="translate(307.534 227.631)"/></g></g></g><g fill="#2A2E30"><g><g><path d="M 10.46875 0.265625 C 8.4375 0.285156 6.691406 -0.0703125 5.234375 -0.8125 C 3.773438 -1.5625 2.65625 -2.628906 1.875 -4.015625 C 1.101562 -5.410156 0.71875 -7.085938 0.71875 -9.046875 C 0.71875 -11.054688 1.140625 -12.804688 1.984375 -14.296875 C 2.828125 -15.796875 4.003906 -16.957031 5.515625 -17.78125 C 7.035156 -18.613281 8.8125 -19.03125 10.84375 -19.03125 C 12.6875 -19.03125 14.300781 -18.640625 15.6875 -17.859375 C 17.070312 -17.085938 18.144531 -16.007812 18.90625 -14.625 C 19.675781 -13.25 20.0625 -11.625 20.0625 -9.75 C 20.0625 -7.78125 19.660156 -6.046875 18.859375 -4.546875 C 18.054688 -3.046875 16.929688 -1.875 15.484375 -1.03125 C 14.046875 -0.1875 12.375 0.242188 10.46875 0.265625 Z M 10.34375 -4.359375 C 11.695312 -4.359375 12.769531 -4.835938 13.5625 -5.796875 C 14.351562 -6.765625 14.75 -8.050781 14.75 -9.65625 C 14.75 -11.09375 14.375 -12.242188 13.625 -13.109375 C 12.875 -13.972656 11.875 -14.40625 10.625 -14.40625 C 9.707031 -14.40625 8.90625 -14.179688 8.21875 -13.734375 C 7.53125 -13.285156 6.992188 -12.664062 6.609375 -11.875 C 6.234375 -11.09375 6.046875 -10.191406 6.046875 -9.171875 C 6.046875 -7.660156 6.425781 -6.476562 7.1875 -5.625 C 7.945312 -4.78125 9 -4.359375 10.34375 -4.359375 Z M 10.34375 -4.359375" transform="translate(320.648 227.631)"/></g></g></g><g fill="#2A2E30"><g><g><path d="M 7.90625 0.265625 C 5.539062 0.265625 3.695312 -0.234375 2.375 -1.234375 C 1.050781 -2.242188 0.300781 -3.707031 0.125 -5.625 L 5.015625 -6.34375 C 5.054688 -5.675781 5.351562 -5.132812 5.90625 -4.71875 C 6.457031 -4.300781 7.175781 -4.09375 8.0625 -4.09375 C 9.6875 -4.09375 10.5 -4.515625 10.5 -5.359375 C 10.5 -5.753906 10.269531 -6.066406 9.8125 -6.296875 C 9.363281 -6.535156 8.628906 -6.78125 7.609375 -7.03125 C 5.421875 -7.5625 3.816406 -8.265625 2.796875 -9.140625 C 1.773438 -10.023438 1.273438 -11.269531 1.296875 -12.875 C 1.316406 -14.09375 1.640625 -15.160156 2.265625 -16.078125 C 2.890625 -17.003906 3.769531 -17.726562 4.90625 -18.25 C 6.039062 -18.769531 7.375 -19.03125 8.90625 -19.03125 C 10.789062 -19.03125 12.34375 -18.554688 13.5625 -17.609375 C 14.789062 -16.660156 15.492188 -15.363281 15.671875 -13.71875 L 11.046875 -12.921875 C 10.960938 -13.429688 10.695312 -13.847656 10.25 -14.171875 C 9.800781 -14.503906 9.257812 -14.671875 8.625 -14.671875 C 8.019531 -14.671875 7.535156 -14.550781 7.171875 -14.3125 C 6.816406 -14.070312 6.640625 -13.75 6.640625 -13.34375 C 6.640625 -12.976562 6.816406 -12.65625 7.171875 -12.375 C 7.535156 -12.101562 8.222656 -11.847656 9.234375 -11.609375 C 10.671875 -11.253906 11.878906 -10.851562 12.859375 -10.40625 C 13.835938 -9.957031 14.578125 -9.378906 15.078125 -8.671875 C 15.585938 -7.960938 15.84375 -7.035156 15.84375 -5.890625 C 15.84375 -4.679688 15.507812 -3.613281 14.84375 -2.6875 C 14.1875 -1.757812 13.257812 -1.035156 12.0625 -0.515625 C 10.875 0.00390625 9.488281 0.265625 7.90625 0.265625 Z M 7.90625 0.265625" transform="translate(346.082 227.631)"/></g></g></g></svg>