<svg xmlns="http://www.w3.org/2000/svg" width="375" viewBox="0 0 375 375" height="375" version="1.0"><defs><clipPath id="a"><path d="M 67.269531 67.269531 L 308.019531 67.269531 L 308.019531 308.019531 L 67.269531 308.019531 Z M 67.269531 67.269531"/></clipPath></defs><g clip-path="url(#a)"><path fill="#E7BF20" d="M 187.644531 67.269531 C 185.675781 67.269531 183.707031 67.316406 181.738281 67.414062 C 179.769531 67.511719 177.804688 67.65625 175.847656 67.847656 C 173.886719 68.042969 171.929688 68.285156 169.980469 68.574219 C 168.035156 68.863281 166.09375 69.199219 164.160156 69.582031 C 162.230469 69.96875 160.308594 70.398438 158.394531 70.878906 C 156.484375 71.355469 154.585938 71.882812 152.703125 72.453125 C 150.816406 73.023438 148.945312 73.644531 147.089844 74.304688 C 145.238281 74.96875 143.398438 75.679688 141.578125 76.433594 C 139.757812 77.1875 137.957031 77.984375 136.179688 78.828125 C 134.398438 79.667969 132.636719 80.554688 130.898438 81.484375 C 129.164062 82.414062 127.449219 83.382812 125.757812 84.394531 C 124.070312 85.410156 122.40625 86.460938 120.769531 87.554688 C 119.128906 88.652344 117.519531 89.785156 115.9375 90.957031 C 114.355469 92.132812 112.800781 93.34375 111.28125 94.59375 C 109.757812 95.84375 108.265625 97.128906 106.804688 98.453125 C 105.347656 99.777344 103.917969 101.132812 102.527344 102.527344 C 101.132812 103.917969 99.777344 105.347656 98.453125 106.804688 C 97.128906 108.265625 95.84375 109.757812 94.59375 111.28125 C 93.34375 112.800781 92.132812 114.355469 90.957031 115.9375 C 89.785156 117.519531 88.652344 119.128906 87.554688 120.769531 C 86.460938 122.40625 85.410156 124.070312 84.394531 125.757812 C 83.382812 127.449219 82.414062 129.164062 81.484375 130.898438 C 80.554688 132.636719 79.667969 134.398438 78.828125 136.179688 C 77.984375 137.957031 77.1875 139.757812 76.433594 141.578125 C 75.679688 143.398438 74.96875 145.238281 74.304688 147.089844 C 73.644531 148.945312 73.023438 150.816406 72.453125 152.703125 C 71.882812 154.585938 71.355469 156.484375 70.878906 158.394531 C 70.398438 160.308594 69.96875 162.230469 69.582031 164.160156 C 69.199219 166.09375 68.863281 168.035156 68.574219 169.980469 C 68.285156 171.929688 68.042969 173.886719 67.847656 175.847656 C 67.65625 177.804688 67.511719 179.769531 67.414062 181.738281 C 67.316406 183.707031 67.269531 185.675781 67.269531 187.644531 C 67.269531 189.613281 67.316406 191.582031 67.414062 193.550781 C 67.511719 195.519531 67.65625 197.484375 67.847656 199.445312 C 68.042969 201.402344 68.285156 203.359375 68.574219 205.308594 C 68.863281 207.257812 69.199219 209.195312 69.582031 211.128906 C 69.96875 213.0625 70.398438 214.984375 70.878906 216.894531 C 71.355469 218.804688 71.882812 220.703125 72.453125 222.585938 C 73.023438 224.472656 73.644531 226.34375 74.304688 228.199219 C 74.96875 230.050781 75.679688 231.890625 76.433594 233.710938 C 77.1875 235.53125 77.984375 237.332031 78.828125 239.113281 C 79.667969 240.890625 80.554688 242.652344 81.484375 244.390625 C 82.414062 246.125 83.382812 247.839844 84.394531 249.53125 C 85.410156 251.21875 86.460938 252.882812 87.554688 254.519531 C 88.652344 256.160156 89.785156 257.769531 90.957031 259.351562 C 92.132812 260.933594 93.34375 262.488281 94.59375 264.011719 C 95.84375 265.53125 97.128906 267.023438 98.453125 268.484375 C 99.777344 269.941406 101.132812 271.371094 102.527344 272.761719 C 103.917969 274.15625 105.347656 275.515625 106.804688 276.835938 C 108.265625 278.160156 109.757812 279.445312 111.28125 280.695312 C 112.800781 281.945312 114.355469 283.15625 115.9375 284.332031 C 117.519531 285.503906 119.128906 286.636719 120.769531 287.734375 C 122.40625 288.828125 124.070312 289.882812 125.757812 290.894531 C 127.449219 291.90625 129.164062 292.878906 130.898438 293.804688 C 132.636719 294.734375 134.398438 295.621094 136.179688 296.460938 C 137.957031 297.304688 139.757812 298.101562 141.578125 298.855469 C 143.398438 299.609375 145.238281 300.320312 147.089844 300.984375 C 148.945312 301.648438 150.816406 302.265625 152.703125 302.835938 C 154.585938 303.410156 156.484375 303.933594 158.394531 304.414062 C 160.308594 304.890625 162.230469 305.324219 164.160156 305.707031 C 166.09375 306.089844 168.035156 306.429688 169.980469 306.71875 C 171.929688 307.007812 173.886719 307.246094 175.847656 307.441406 C 177.804688 307.632812 179.769531 307.777344 181.738281 307.875 C 183.707031 307.972656 185.675781 308.019531 187.644531 308.019531 C 189.613281 308.019531 191.582031 307.972656 193.550781 307.875 C 195.519531 307.777344 197.484375 307.632812 199.445312 307.441406 C 201.402344 307.246094 203.359375 307.007812 205.308594 306.71875 C 207.257812 306.429688 209.195312 306.089844 211.128906 305.707031 C 213.0625 305.324219 214.984375 304.890625 216.894531 304.414062 C 218.804688 303.933594 220.703125 303.410156 222.585938 302.835938 C 224.472656 302.265625 226.34375 301.648438 228.199219 300.984375 C 230.050781 300.320312 231.890625 299.609375 233.710938 298.855469 C 235.53125 298.101562 237.332031 297.304688 239.113281 296.460938 C 240.890625 295.621094 242.652344 294.734375 244.390625 293.804688 C 246.125 292.878906 247.839844 291.90625 249.53125 290.894531 C 251.21875 289.882812 252.882812 288.828125 254.519531 287.734375 C 256.160156 286.636719 257.769531 285.503906 259.351562 284.332031 C 260.933594 283.15625 262.488281 281.945312 264.011719 280.695312 C 265.53125 279.445312 267.023438 278.160156 268.484375 276.835938 C 269.941406 275.515625 271.371094 274.15625 272.761719 272.761719 C 274.15625 271.371094 275.515625 269.941406 276.835938 268.484375 C 278.160156 267.023438 279.445312 265.53125 280.695312 264.011719 C 281.945312 262.488281 283.15625 260.933594 284.332031 259.351562 C 285.503906 257.769531 286.636719 256.160156 287.734375 254.519531 C 288.828125 252.882812 289.882812 251.21875 290.894531 249.53125 C 291.90625 247.839844 292.878906 246.125 293.804688 244.390625 C 294.734375 242.652344 295.621094 240.890625 296.460938 239.113281 C 297.304688 237.332031 298.101562 235.53125 298.855469 233.710938 C 299.609375 231.890625 300.320312 230.050781 300.984375 228.199219 C 301.648438 226.34375 302.265625 224.472656 302.835938 222.585938 C 303.410156 220.703125 303.933594 218.804688 304.414062 216.894531 C 304.890625 214.984375 305.324219 213.0625 305.707031 211.128906 C 306.089844 209.195312 306.429688 207.257812 306.71875 205.308594 C 307.007812 203.359375 307.246094 201.402344 307.441406 199.445312 C 307.632812 197.484375 307.777344 195.519531 307.875 193.550781 C 307.972656 191.582031 308.019531 189.613281 308.019531 187.644531 C 308.015625 185.675781 307.96875 183.707031 307.867188 181.738281 C 307.769531 179.773438 307.621094 177.808594 307.429688 175.851562 C 307.234375 173.890625 306.992188 171.9375 306.699219 169.988281 C 306.410156 168.039062 306.070312 166.101562 305.683594 164.171875 C 305.300781 162.238281 304.867188 160.316406 304.386719 158.40625 C 303.90625 156.496094 303.378906 154.601562 302.804688 152.714844 C 302.234375 150.832031 301.613281 148.964844 300.949219 147.109375 C 300.285156 145.253906 299.574219 143.417969 298.820312 141.601562 C 298.066406 139.78125 297.269531 137.980469 296.425781 136.203125 C 295.582031 134.421875 294.695312 132.664062 293.765625 130.925781 C 292.835938 129.191406 291.867188 127.476562 290.855469 125.789062 C 289.839844 124.101562 288.785156 122.4375 287.691406 120.800781 C 286.597656 119.164062 285.464844 117.550781 284.289062 115.972656 C 283.117188 114.390625 281.90625 112.835938 280.65625 111.316406 C 279.40625 109.792969 278.121094 108.300781 276.796875 106.84375 C 275.472656 105.382812 274.117188 103.957031 272.722656 102.566406 C 271.332031 101.171875 269.90625 99.816406 268.445312 98.492188 C 266.988281 97.171875 265.496094 95.882812 263.972656 94.632812 C 262.453125 93.382812 260.898438 92.171875 259.316406 91 C 257.738281 89.824219 256.128906 88.691406 254.488281 87.597656 C 252.851562 86.503906 251.191406 85.449219 249.5 84.4375 C 247.8125 83.421875 246.097656 82.453125 244.363281 81.523438 C 242.625 80.59375 240.867188 79.707031 239.089844 78.863281 C 237.308594 78.023438 235.507812 77.222656 233.691406 76.46875 C 231.871094 75.714844 230.035156 75.003906 228.179688 74.339844 C 226.328125 73.675781 224.457031 73.054688 222.574219 72.484375 C 220.6875 71.910156 218.792969 71.382812 216.882812 70.902344 C 214.972656 70.421875 213.050781 69.992188 211.121094 69.605469 C 209.1875 69.21875 207.25 68.878906 205.300781 68.589844 C 203.351562 68.300781 201.398438 68.054688 199.4375 67.863281 C 197.480469 67.667969 195.515625 67.519531 193.550781 67.421875 C 191.582031 67.324219 189.613281 67.273438 187.644531 67.269531 Z M 244.664062 230.5625 C 244.664062 231.230469 244.628906 231.898438 244.5625 232.5625 C 244.5 233.230469 244.398438 233.890625 244.269531 234.546875 C 244.136719 235.203125 243.976562 235.851562 243.78125 236.492188 C 243.585938 237.132812 243.359375 237.761719 243.105469 238.378906 C 242.847656 239 242.5625 239.601562 242.246094 240.191406 C 241.929688 240.78125 241.585938 241.355469 241.214844 241.910156 C 240.84375 242.46875 240.445312 243.003906 240.019531 243.523438 C 239.59375 244.039062 239.144531 244.535156 238.671875 245.007812 C 238.199219 245.480469 237.703125 245.929688 237.1875 246.355469 C 236.667969 246.78125 236.132812 247.175781 235.578125 247.550781 C 235.019531 247.921875 234.445312 248.265625 233.855469 248.582031 C 233.265625 248.898438 232.664062 249.183594 232.042969 249.4375 C 231.425781 249.695312 230.796875 249.921875 230.15625 250.117188 C 229.515625 250.308594 228.867188 250.472656 228.210938 250.605469 C 227.554688 250.734375 226.894531 250.832031 226.230469 250.898438 C 225.5625 250.964844 224.894531 251 224.226562 251 L 151.0625 251 C 150.394531 251 149.726562 250.964844 149.0625 250.898438 C 148.394531 250.832031 147.734375 250.734375 147.078125 250.605469 C 146.421875 250.472656 145.773438 250.308594 145.132812 250.117188 C 144.492188 249.921875 143.863281 249.695312 143.246094 249.4375 C 142.625 249.183594 142.023438 248.898438 141.433594 248.582031 C 140.84375 248.265625 140.269531 247.921875 139.714844 247.550781 C 139.15625 247.179688 138.621094 246.78125 138.101562 246.355469 C 137.585938 245.929688 137.089844 245.480469 136.617188 245.007812 C 136.144531 244.535156 135.695312 244.039062 135.269531 243.523438 C 134.84375 243.003906 134.445312 242.46875 134.074219 241.910156 C 133.703125 241.355469 133.359375 240.78125 133.042969 240.191406 C 132.726562 239.601562 132.441406 239 132.1875 238.378906 C 131.929688 237.761719 131.703125 237.132812 131.507812 236.492188 C 131.316406 235.851562 131.152344 235.203125 131.019531 234.546875 C 130.890625 233.890625 130.792969 233.230469 130.726562 232.5625 C 130.660156 231.898438 130.625 231.230469 130.625 230.5625 L 130.625 193.980469 C 130.625 193.5625 130.664062 193.152344 130.746094 192.746094 C 130.828125 192.335938 130.949219 191.941406 131.105469 191.554688 C 131.265625 191.171875 131.460938 190.804688 131.691406 190.460938 C 131.921875 190.113281 132.1875 189.792969 132.480469 189.5 C 132.773438 189.207031 133.09375 188.945312 133.441406 188.710938 C 133.785156 188.480469 134.152344 188.285156 134.535156 188.128906 C 134.921875 187.96875 135.316406 187.847656 135.722656 187.765625 C 136.132812 187.683594 136.542969 187.644531 136.960938 187.644531 C 137.375 187.644531 137.789062 187.683594 138.195312 187.765625 C 138.605469 187.847656 139 187.96875 139.386719 188.128906 C 139.769531 188.285156 140.132812 188.480469 140.480469 188.710938 C 140.828125 188.945312 141.144531 189.207031 141.441406 189.5 C 141.734375 189.792969 141.996094 190.113281 142.226562 190.460938 C 142.460938 190.804688 142.65625 191.171875 142.8125 191.554688 C 142.972656 191.941406 143.09375 192.335938 143.175781 192.746094 C 143.253906 193.152344 143.296875 193.5625 143.296875 193.980469 L 143.296875 230.5625 C 143.296875 231.070312 143.347656 231.578125 143.445312 232.078125 C 143.546875 232.578125 143.695312 233.0625 143.890625 233.53125 C 144.085938 234.003906 144.324219 234.453125 144.605469 234.875 C 144.890625 235.300781 145.210938 235.691406 145.574219 236.050781 C 145.933594 236.414062 146.324219 236.734375 146.75 237.019531 C 147.171875 237.300781 147.621094 237.539062 148.09375 237.734375 C 148.5625 237.929688 149.046875 238.078125 149.546875 238.179688 C 150.046875 238.277344 150.554688 238.328125 151.0625 238.328125 L 224.226562 238.328125 C 224.734375 238.328125 225.242188 238.277344 225.742188 238.179688 C 226.242188 238.078125 226.726562 237.929688 227.199219 237.734375 C 227.667969 237.539062 228.117188 237.300781 228.539062 237.019531 C 228.964844 236.734375 229.355469 236.414062 229.714844 236.050781 C 230.078125 235.691406 230.398438 235.300781 230.683594 234.875 C 230.964844 234.453125 231.207031 234.003906 231.402344 233.53125 C 231.597656 233.0625 231.742188 232.578125 231.84375 232.078125 C 231.941406 231.578125 231.992188 231.070312 231.992188 230.5625 L 231.992188 193.980469 C 231.992188 193.5625 232.035156 193.152344 232.113281 192.746094 C 232.195312 192.335938 232.316406 191.941406 232.476562 191.554688 C 232.636719 191.171875 232.828125 190.804688 233.0625 190.460938 C 233.292969 190.113281 233.554688 189.792969 233.847656 189.5 C 234.144531 189.207031 234.464844 188.945312 234.808594 188.710938 C 235.15625 188.480469 235.519531 188.285156 235.90625 188.128906 C 236.289062 187.96875 236.683594 187.847656 237.09375 187.765625 C 237.5 187.683594 237.914062 187.644531 238.328125 187.644531 C 238.746094 187.644531 239.15625 187.683594 239.566406 187.765625 C 239.972656 187.847656 240.367188 187.96875 240.753906 188.128906 C 241.136719 188.285156 241.503906 188.480469 241.847656 188.710938 C 242.195312 188.945312 242.515625 189.207031 242.808594 189.5 C 243.101562 189.792969 243.367188 190.113281 243.597656 190.460938 C 243.828125 190.804688 244.023438 191.171875 244.183594 191.554688 C 244.339844 191.941406 244.460938 192.335938 244.542969 192.746094 C 244.625 193.152344 244.664062 193.5625 244.664062 193.980469 Z M 255.707031 179.242188 C 255.429688 179.554688 255.125 179.832031 254.789062 180.082031 C 254.457031 180.328125 254.101562 180.542969 253.726562 180.722656 C 253.351562 180.902344 252.960938 181.042969 252.558594 181.144531 C 252.15625 181.246094 251.746094 181.308594 251.332031 181.332031 C 250.917969 181.351562 250.503906 181.332031 250.089844 181.273438 C 249.679688 181.214844 249.277344 181.113281 248.886719 180.976562 C 248.492188 180.835938 248.117188 180.660156 247.761719 180.449219 C 247.402344 180.234375 247.070312 179.992188 246.761719 179.710938 L 187.644531 126.476562 L 128.527344 179.695312 C 128.21875 179.960938 127.882812 180.199219 127.527344 180.402344 C 127.171875 180.605469 126.796875 180.773438 126.410156 180.90625 C 126.019531 181.035156 125.621094 181.128906 125.214844 181.183594 C 124.808594 181.238281 124.398438 181.25 123.988281 181.226562 C 123.578125 181.199219 123.175781 181.136719 122.777344 181.03125 C 122.378906 180.925781 121.996094 180.785156 121.625 180.609375 C 121.257812 180.429688 120.90625 180.214844 120.578125 179.96875 C 120.25 179.722656 119.949219 179.445312 119.675781 179.140625 C 119.398438 178.835938 119.15625 178.507812 118.945312 178.15625 C 118.734375 177.804688 118.558594 177.433594 118.421875 177.046875 C 118.28125 176.660156 118.179688 176.265625 118.121094 175.859375 C 118.058594 175.453125 118.035156 175.042969 118.050781 174.632812 C 118.070312 174.222656 118.125 173.816406 118.222656 173.417969 C 118.320312 173.019531 118.453125 172.632812 118.625 172.261719 C 118.796875 171.886719 119 171.535156 119.242188 171.199219 C 119.480469 170.867188 119.75 170.558594 120.050781 170.277344 L 183.40625 113.257812 C 183.695312 113 184.003906 112.769531 184.335938 112.566406 C 184.664062 112.363281 185.011719 112.191406 185.375 112.054688 C 185.738281 111.914062 186.109375 111.808594 186.492188 111.738281 C 186.871094 111.667969 187.257812 111.632812 187.644531 111.632812 C 188.03125 111.632812 188.417969 111.667969 188.800781 111.738281 C 189.179688 111.808594 189.550781 111.914062 189.914062 112.054688 C 190.277344 112.191406 190.625 112.363281 190.953125 112.566406 C 191.285156 112.769531 191.59375 113 191.882812 113.257812 L 255.238281 170.277344 C 255.546875 170.558594 255.824219 170.863281 256.074219 171.195312 C 256.320312 171.527344 256.535156 171.882812 256.710938 172.257812 C 256.890625 172.632812 257.03125 173.019531 257.132812 173.421875 C 257.234375 173.824219 257.296875 174.234375 257.320312 174.648438 C 257.339844 175.0625 257.320312 175.476562 257.261719 175.886719 C 257.203125 176.296875 257.105469 176.699219 256.964844 177.089844 C 256.828125 177.480469 256.652344 177.855469 256.441406 178.214844 C 256.230469 178.570312 255.984375 178.902344 255.707031 179.210938 Z M 255.707031 179.242188"/></g></svg>