<svg xmlns="http://www.w3.org/2000/svg" width="375" viewBox="0 0 375 375" height="375" version="1.0"><g fill="#FFF"><g><g><path d="M 12.390625 0.3125 C 9.992188 0.332031 7.925781 -0.09375 6.1875 -0.96875 C 4.457031 -1.84375 3.132812 -3.101562 2.21875 -4.75 C 1.300781 -6.40625 0.84375 -8.390625 0.84375 -10.703125 C 0.84375 -13.078125 1.34375 -15.148438 2.34375 -16.921875 C 3.34375 -18.703125 4.738281 -20.082031 6.53125 -21.0625 C 8.332031 -22.039062 10.429688 -22.53125 12.828125 -22.53125 C 15.023438 -22.53125 16.941406 -22.070312 18.578125 -21.15625 C 20.210938 -20.238281 21.484375 -18.957031 22.390625 -17.3125 C 23.296875 -15.675781 23.75 -13.753906 23.75 -11.546875 C 23.75 -9.210938 23.273438 -7.15625 22.328125 -5.375 C 21.378906 -3.601562 20.050781 -2.21875 18.34375 -1.21875 C 16.632812 -0.21875 14.648438 0.289062 12.390625 0.3125 Z M 12.234375 -5.15625 C 13.835938 -5.15625 15.109375 -5.722656 16.046875 -6.859375 C 16.992188 -8.003906 17.46875 -9.523438 17.46875 -11.421875 C 17.46875 -13.128906 17.019531 -14.492188 16.125 -15.515625 C 15.238281 -16.546875 14.054688 -17.0625 12.578125 -17.0625 C 11.492188 -17.0625 10.546875 -16.789062 9.734375 -16.25 C 8.921875 -15.71875 8.289062 -14.988281 7.84375 -14.0625 C 7.394531 -13.132812 7.171875 -12.066406 7.171875 -10.859375 C 7.171875 -9.066406 7.617188 -7.664062 8.515625 -6.65625 C 9.410156 -5.65625 10.648438 -5.15625 12.234375 -5.15625 Z M 12.234375 -5.15625" transform="translate(57.745 198.663)"/></g></g></g><g fill="#FFF"><g><g><path d="M 16.0625 -22.21875 L 22.0625 -22.21875 L 22.0625 0 L 16.5 0 L 7.890625 -11.953125 L 7.890625 0 L 1.875 0 L 1.875 -22.21875 L 7.453125 -22.21875 L 16.0625 -10.296875 Z M 16.0625 -22.21875" transform="translate(87.853 198.663)"/></g></g></g><g fill="#FFF"><g><g><path d="M 1.875 0 L 1.875 -22.21875 L 9.703125 -22.21875 C 14.148438 -22.21875 17.503906 -21.285156 19.765625 -19.421875 C 22.023438 -17.554688 23.15625 -14.796875 23.15625 -11.140625 C 23.15625 -9.535156 22.863281 -8.050781 22.28125 -6.6875 C 21.695312 -5.332031 20.875 -4.15625 19.8125 -3.15625 C 18.75 -2.15625 17.488281 -1.378906 16.03125 -0.828125 C 14.582031 -0.273438 13.003906 0 11.296875 0 Z M 8.140625 -5.515625 L 10.859375 -5.515625 C 12.835938 -5.515625 14.332031 -5.984375 15.34375 -6.921875 C 16.363281 -7.859375 16.875 -9.210938 16.875 -10.984375 C 16.875 -12.960938 16.335938 -14.410156 15.265625 -15.328125 C 14.203125 -16.253906 12.546875 -16.71875 10.296875 -16.71875 L 8.140625 -16.71875 Z M 8.140625 -5.515625" transform="translate(117.304 198.663)"/></g></g></g><g fill="#FFF"><g><g><path d="M 12.390625 0.3125 C 9.992188 0.332031 7.925781 -0.09375 6.1875 -0.96875 C 4.457031 -1.84375 3.132812 -3.101562 2.21875 -4.75 C 1.300781 -6.40625 0.84375 -8.390625 0.84375 -10.703125 C 0.84375 -13.078125 1.34375 -15.148438 2.34375 -16.921875 C 3.34375 -18.703125 4.738281 -20.082031 6.53125 -21.0625 C 8.332031 -22.039062 10.429688 -22.53125 12.828125 -22.53125 C 15.023438 -22.53125 16.941406 -22.070312 18.578125 -21.15625 C 20.210938 -20.238281 21.484375 -18.957031 22.390625 -17.3125 C 23.296875 -15.675781 23.75 -13.753906 23.75 -11.546875 C 23.75 -9.210938 23.273438 -7.15625 22.328125 -5.375 C 21.378906 -3.601562 20.050781 -2.21875 18.34375 -1.21875 C 16.632812 -0.21875 14.648438 0.289062 12.390625 0.3125 Z M 12.234375 -5.15625 C 13.835938 -5.15625 15.109375 -5.722656 16.046875 -6.859375 C 16.992188 -8.003906 17.46875 -9.523438 17.46875 -11.421875 C 17.46875 -13.128906 17.019531 -14.492188 16.125 -15.515625 C 15.238281 -16.546875 14.054688 -17.0625 12.578125 -17.0625 C 11.492188 -17.0625 10.546875 -16.789062 9.734375 -16.25 C 8.921875 -15.71875 8.289062 -14.988281 7.84375 -14.0625 C 7.394531 -13.132812 7.171875 -12.066406 7.171875 -10.859375 C 7.171875 -9.066406 7.617188 -7.664062 8.515625 -6.65625 C 9.410156 -5.65625 10.648438 -5.15625 12.234375 -5.15625 Z M 12.234375 -5.15625" transform="translate(146.817 198.663)"/></g></g></g><g fill="#FFF"><g><g><path d="M 1.9375 0 L 2.59375 -22.21875 L 7.703125 -22.21875 L 15.140625 -7.734375 L 22.46875 -22.21875 L 27.578125 -22.21875 L 28.046875 0 L 22 0 L 21.8125 -9.296875 L 17.0625 0 L 12.671875 0 L 7.953125 -9.140625 L 7.671875 0 Z M 1.9375 0" transform="translate(176.925 198.663)"/></g></g></g><g fill="#FFF"><g><g><path d="M 1.875 0 L 1.875 -22.21875 L 8.140625 -22.21875 L 8.140625 0 Z M 1.875 0" transform="translate(212.448 198.663)"/></g></g></g><g fill="#FFF"><g><g><path d="M 16.0625 -22.21875 L 22.0625 -22.21875 L 22.0625 0 L 16.5 0 L 7.890625 -11.953125 L 7.890625 0 L 1.875 0 L 1.875 -22.21875 L 7.453125 -22.21875 L 16.0625 -10.296875 Z M 16.0625 -22.21875" transform="translate(227.972 198.663)"/></g></g></g><g fill="#FFF"><g><g><path d="M 1.875 0 L 1.875 -22.21875 L 8.140625 -22.21875 L 8.140625 0 Z M 1.875 0" transform="translate(257.423 198.663)"/></g></g></g><g fill="#FFF"><g><g><path d="M 12.390625 0.3125 C 9.992188 0.332031 7.925781 -0.09375 6.1875 -0.96875 C 4.457031 -1.84375 3.132812 -3.101562 2.21875 -4.75 C 1.300781 -6.40625 0.84375 -8.390625 0.84375 -10.703125 C 0.84375 -13.078125 1.34375 -15.148438 2.34375 -16.921875 C 3.34375 -18.703125 4.738281 -20.082031 6.53125 -21.0625 C 8.332031 -22.039062 10.429688 -22.53125 12.828125 -22.53125 C 15.023438 -22.53125 16.941406 -22.070312 18.578125 -21.15625 C 20.210938 -20.238281 21.484375 -18.957031 22.390625 -17.3125 C 23.296875 -15.675781 23.75 -13.753906 23.75 -11.546875 C 23.75 -9.210938 23.273438 -7.15625 22.328125 -5.375 C 21.378906 -3.601562 20.050781 -2.21875 18.34375 -1.21875 C 16.632812 -0.21875 14.648438 0.289062 12.390625 0.3125 Z M 12.234375 -5.15625 C 13.835938 -5.15625 15.109375 -5.722656 16.046875 -6.859375 C 16.992188 -8.003906 17.46875 -9.523438 17.46875 -11.421875 C 17.46875 -13.128906 17.019531 -14.492188 16.125 -15.515625 C 15.238281 -16.546875 14.054688 -17.0625 12.578125 -17.0625 C 11.492188 -17.0625 10.546875 -16.789062 9.734375 -16.25 C 8.921875 -15.71875 8.289062 -14.988281 7.84375 -14.0625 C 7.394531 -13.132812 7.171875 -12.066406 7.171875 -10.859375 C 7.171875 -9.066406 7.617188 -7.664062 8.515625 -6.65625 C 9.410156 -5.65625 10.648438 -5.15625 12.234375 -5.15625 Z M 12.234375 -5.15625" transform="translate(272.947 198.663)"/></g></g></g><g fill="#FFF"><g><g><path d="M 9.359375 0.3125 C 6.554688 0.3125 4.375 -0.28125 2.8125 -1.46875 C 1.25 -2.65625 0.363281 -4.390625 0.15625 -6.671875 L 5.953125 -7.515625 C 5.992188 -6.722656 6.34375 -6.078125 7 -5.578125 C 7.65625 -5.085938 8.503906 -4.84375 9.546875 -4.84375 C 11.460938 -4.84375 12.421875 -5.347656 12.421875 -6.359375 C 12.421875 -6.816406 12.15625 -7.1875 11.625 -7.46875 C 11.09375 -7.75 10.222656 -8.035156 9.015625 -8.328125 C 6.421875 -8.953125 4.519531 -9.785156 3.3125 -10.828125 C 2.101562 -11.867188 1.507812 -13.335938 1.53125 -15.234375 C 1.550781 -16.679688 1.929688 -17.953125 2.671875 -19.046875 C 3.410156 -20.140625 4.453125 -20.992188 5.796875 -21.609375 C 7.148438 -22.222656 8.734375 -22.53125 10.546875 -22.53125 C 12.773438 -22.53125 14.613281 -21.96875 16.0625 -20.84375 C 17.519531 -19.71875 18.351562 -18.1875 18.5625 -16.25 L 13.078125 -15.296875 C 12.972656 -15.910156 12.65625 -16.410156 12.125 -16.796875 C 11.59375 -17.179688 10.953125 -17.375 10.203125 -17.375 C 9.492188 -17.375 8.925781 -17.234375 8.5 -16.953125 C 8.070312 -16.671875 7.859375 -16.289062 7.859375 -15.8125 C 7.859375 -15.363281 8.070312 -14.976562 8.5 -14.65625 C 8.925781 -14.332031 9.734375 -14.023438 10.921875 -13.734375 C 12.628906 -13.316406 14.0625 -12.84375 15.21875 -12.3125 C 16.382812 -11.78125 17.265625 -11.097656 17.859375 -10.265625 C 18.453125 -9.429688 18.75 -8.335938 18.75 -6.984375 C 18.75 -5.535156 18.359375 -4.265625 17.578125 -3.171875 C 16.796875 -2.078125 15.695312 -1.222656 14.28125 -0.609375 C 12.875 0.00390625 11.234375 0.3125 9.359375 0.3125 Z M 9.359375 0.3125" transform="translate(303.055 198.663)"/></g></g></g></svg>